<?xml version="1.0"?>
<svg xmlns="http://www.w3.org/2000/svg" viewBox="0 0 512 512" width="512" height="512"><g id="Fill_out_line" data-name="Fill out line"><polygon points="280 216 200 296 200 320 224 320 304 240 280 216" style="fill:#8acce7"/><path d="M176,471.3999V496H16V16H88V160a96.01575,96.01575,0,0,1-64,90.53v26.76a31.99349,31.99349,0,0,0,26.28,31.49,140.63,140.63,0,0,1,94.6,64.6499l6.28,10.2A167.51029,167.51029,0,0,1,176,471.3999Z" style="fill:#f4ceaf"/><path d="M88,56h8a48,48,0,0,1,48,48V104a48,48,0,0,1-48,48H88a0,0,0,0,1,0,0V56A0,0,0,0,1,88,56Z" style="fill:#f2c194"/><rect x="315.02944" y="165.37258" width="33.94113" height="45.25483" transform="translate(-35.69553 289.82338) rotate(-45)" style="fill:#379ec3"/><polygon points="303.43 279.43 240 216 264 192 328 256 303.43 279.43" style="fill:#379ec3"/><path d="M416,272l-48,48-80,16-7.72-11.58008L270.86,310.29,264,312l-16-16,16.57-16.57007-50.6-28.10986a17.64035,17.64035,0,0,1-8.13995-9.8l-.39-1.16016a17.22868,17.22868,0,0,1,10.89-21.7998l.27-.09009a17.57665,17.57665,0,0,1,14.16,1.28C248.67,229.71,296,256,296,256h42.75a32,32,0,0,0,22.62-54.62988L336,176a33.94384,33.94384,0,0,1,0-48l40,24h24Z" style="fill:#f4ceaf"/><polygon points="496 295.111 416 304 400 152 496 134.545 496 295.111" style="fill:#396795"/><circle cx="448" cy="264" r="8" style="fill:#eebe33"/><path d="M151.69287,369.2373a148.814,148.814,0,0,0-99.98584-68.331A23.98862,23.98862,0,0,1,32,277.294l.001-21.26563A104.20581,104.20581,0,0,0,96,160,56,56,0,0,0,96,48V16H80V160a88.1541,88.1541,0,0,1-58.666,82.99414,8.00013,8.00013,0,0,0-5.334,7.543V277.294a39.982,39.982,0,0,0,32.84473,39.35449,132.79459,132.79459,0,0,1,89.22216,60.97461l6.27735,10.20019A159.38221,159.38221,0,0,1,168,471.40039V496h16V471.40039a175.36355,175.36355,0,0,0-26.0293-91.96191ZM136,104a40.04552,40.04552,0,0,1-40,40V64A40.04552,40.04552,0,0,1,136,104Z"/><path d="M423.11377,295.16016,408.73291,158.543l80.69824-14.67188-2.8623-15.74218L399.27783,144h-21.062l-38.1001-22.86035a8.00122,8.00122,0,0,0-9.77246,1.20312,41.90526,41.90526,0,0,0-11.81158,35.812l-20.18842,20.188a8.00063,8.00063,0,0,0,0,11.31446L308.686,200,296,212.686l-26.34326-26.34327a8.00182,8.00182,0,0,0-11.31348,0l-24,24a7.98708,7.98708,0,0,0-1.247,1.63062,25.748,25.748,0,0,0-19.03766-1.09253l-.25341.085a25.22488,25.22488,0,0,0-15.94678,31.93359l.38672,1.15723a25.5452,25.5452,0,0,0,11.84375,14.25586l10.469,5.81592-26.2146,26.21435A8.00076,8.00076,0,0,0,192,296v20.686l-21.65674,21.65673a8.00018,8.00018,0,0,0,11.31348,11.31446L203.314,328H224a8.00035,8.00035,0,0,0,5.65674-2.34277L248,307.314l10.34326,10.34327a7.99778,7.99778,0,0,0,7.59717,2.10351l1.38757-.34692,14.01575,21.02368a8.00019,8.00019,0,0,0,8.2251,3.40723l80-16a8.00171,8.00171,0,0,0,4.08789-2.1875l33.095-33.095,1.29218,12.27563A8.00018,8.00018,0,0,0,416,312a8.12579,8.12579,0,0,0,.8833-.04883l72-8-1.7666-15.90234ZM324.69025,174.624a41.91394,41.91394,0,0,0,5.653,7.03321l14.34271,14.343L336,204.68652,315.314,184ZM320,211.314l10.34326,10.34327a8.00063,8.00063,0,0,0,11.31348,0L355.99286,207.321A23.99522,23.99522,0,0,1,338.74512,248H331.314l-24-24Zm-56-8.00048L308.68616,248H298.07324c-4.88916-2.71631-18.949-10.52759-33.21148-18.45215L251.31348,216ZM220.68652,312H208V299.31348L235.10443,272.21l16.31049,9.06128Zm143.36914.63086-72.37109,14.47363-7.87433-11.81128,14.13019-3.53247-3.88086-15.52148-27.60547,6.90136L259.31384,296l6.64765-6.64746,10.15326,5.64062,7.7705-13.98632-66.0249-36.67969a9.58563,9.58563,0,0,1-4.44189-5.34668l-.38672-1.15625a9.22545,9.22545,0,0,1,5.84912-11.68457l.25391-.085a9.546,9.546,0,0,1,7.74316.69043c17.90674,9.95312,65.23682,36.248,65.23682,36.248A8.00209,8.00209,0,0,0,296,264h42.74512a39.99987,39.99987,0,0,0,28.28418-68.28418l-25.37256-25.37305a25.98637,25.98637,0,0,1-3.7832-31.88965l34.01074,20.40723A8.006,8.006,0,0,0,376,160h16.79785l11.79889,112.08936Z"/><circle cx="448" cy="264" r="8"/></g></svg>
